<svg width="68" height="77" viewBox="0 0 68 77" fill="none" xmlns="http://www.w3.org/2000/svg">
<rect width="68" height="77" fill="white"/>
<circle cx="11.5" cy="22.5" r="4.5" fill="#A1A1A1"/>
<circle cx="11.5" cy="45.5" r="4.5" fill="#A1A1A1"/>
<circle cx="30.5" cy="22.5" r="4.5" fill="#A1A1A1"/>
<circle cx="30.5" cy="45.5" r="4.5" fill="#A1A1A1"/>
<circle cx="49.5" cy="22.5" r="4.5" fill="#A1A1A1"/>
<circle cx="49.5" cy="45.5" r="4.5" fill="#A1A1A1"/>
<rect x="7" y="29" width="15" height="2" fill="#C4C4C4"/>
<rect x="7" y="52" width="15" height="2" fill="#C4C4C4"/>
<rect x="26" y="29" width="15" height="2" fill="#C4C4C4"/>
<rect x="26" y="52" width="15" height="2" fill="#C4C4C4"/>
<rect x="45" y="29" width="16" height="2" fill="#C4C4C4"/>
<rect x="45" y="52" width="16" height="2" fill="#C4C4C4"/>
<rect x="7" y="33" width="11" height="2" fill="#C4C4C4"/>
<rect x="7" y="56" width="11" height="2" fill="#C4C4C4"/>
<rect x="26" y="33" width="6" height="2" fill="#C4C4C4"/>
<rect x="26" y="56" width="12" height="2" fill="#C4C4C4"/>
<rect x="45" y="33" width="11" height="2" fill="#C4C4C4"/>
<rect x="45" y="56" width="11" height="2" fill="#C4C4C4"/>
</svg>
